<svg width="912" height="281" viewBox="0 0 912 281" fill="none" xmlns="http://www.w3.org/2000/svg">
<rect x="306" width="606" height="281" rx="77" fill="white"/>
<path d="M414 127.5L447.349 97.5M678 131L643 104.114M483 66L526.074 26.7638C530.372 22.8497 536.856 22.5779 541.465 26.1188L643 104.114M483 66L485 67.5L515.5 93M483 66L447.349 97.5M447.349 97.5L483 127.5M643 104.114L619 131" stroke="url(#paint0_linear_183_85)" stroke-width="13" stroke-linecap="round"/>
<path d="M540 124.765L563.9 108.212M804 127.46L764 103.803M563.9 108.212L642.115 54.041C652.71 46.7025 666.609 46.2043 677.703 52.7655L720 77.7809M563.9 108.212L591.5 129M764 103.803L730.5 129M764 103.803L720 77.7809M720 77.7809L695.5 100.513" stroke="url(#paint1_linear_183_85)" stroke-width="13" stroke-linecap="round"/>
<path d="M461.507 150V198H451.14V153.648L453.892 153.84L433.412 198H422.212L401.732 153.968L404.42 153.712V198H394.116V150H410.82L430.148 192.752H425.476L444.804 150H461.507ZM490.709 198.96C486.186 198.96 482.218 198.171 478.805 196.592C475.391 194.971 472.725 192.731 470.805 189.872C468.885 186.971 467.924 183.621 467.924 179.824C467.924 175.984 468.885 172.635 470.805 169.776C472.725 166.875 475.391 164.635 478.805 163.056C482.218 161.435 486.186 160.624 490.709 160.624C495.231 160.624 499.199 161.435 502.613 163.056C506.026 164.635 508.671 166.875 510.549 169.776C512.469 172.635 513.429 175.984 513.429 179.824C513.429 183.621 512.469 186.971 510.549 189.872C508.671 192.731 506.026 194.971 502.613 196.592C499.199 198.171 495.231 198.96 490.709 198.96ZM490.709 190.832C493.183 190.832 495.295 190.384 497.045 189.488C498.837 188.592 500.202 187.333 501.141 185.712C502.122 184.048 502.613 182.085 502.613 179.824C502.613 177.52 502.122 175.557 501.141 173.936C500.202 172.272 498.837 170.992 497.045 170.096C495.295 169.2 493.183 168.752 490.709 168.752C488.277 168.752 486.165 169.2 484.373 170.096C482.581 170.992 481.194 172.272 480.213 173.936C479.274 175.557 478.805 177.52 478.805 179.824C478.805 182.085 479.274 184.048 480.213 185.712C481.194 187.333 482.581 188.592 484.373 189.488C486.165 190.384 488.277 190.832 490.709 190.832ZM524.867 161.584H562.499V198H551.811V164.784L556.739 169.648H530.179L534.787 165.68C535 168.283 535.171 170.693 535.299 172.912C535.469 175.088 535.555 177.051 535.555 178.8C535.555 185.797 534.509 190.875 532.419 194.032C530.371 197.189 527.043 198.768 522.435 198.768C521.155 198.768 519.917 198.619 518.723 198.32C517.571 198.064 516.44 197.616 515.331 196.976V189.232C516.099 189.531 516.845 189.765 517.571 189.936C518.339 190.064 519.043 190.128 519.683 190.128C521.859 190.128 523.416 189.147 524.355 187.184C525.336 185.179 525.827 181.893 525.827 177.328C525.827 175.28 525.741 172.933 525.571 170.288C525.443 167.643 525.208 164.741 524.867 161.584ZM591.396 198.96C586.873 198.96 582.905 198.171 579.492 196.592C576.079 194.971 573.412 192.731 571.492 189.872C569.572 186.971 568.612 183.621 568.612 179.824C568.612 175.984 569.572 172.635 571.492 169.776C573.412 166.875 576.079 164.635 579.492 163.056C582.905 161.435 586.873 160.624 591.396 160.624C595.919 160.624 599.887 161.435 603.3 163.056C606.713 164.635 609.359 166.875 611.236 169.776C613.156 172.635 614.116 175.984 614.116 179.824C614.116 183.621 613.156 186.971 611.236 189.872C609.359 192.731 606.713 194.971 603.3 196.592C599.887 198.171 595.919 198.96 591.396 198.96ZM591.396 190.832C593.871 190.832 595.983 190.384 597.732 189.488C599.524 188.592 600.889 187.333 601.828 185.712C602.809 184.048 603.3 182.085 603.3 179.824C603.3 177.52 602.809 175.557 601.828 173.936C600.889 172.272 599.524 170.992 597.732 170.096C595.983 169.2 593.871 168.752 591.396 168.752C588.964 168.752 586.852 169.2 585.06 170.096C583.268 170.992 581.881 172.272 580.9 173.936C579.961 175.557 579.492 177.52 579.492 179.824C579.492 182.085 579.961 184.048 580.9 185.712C581.881 187.333 583.268 188.592 585.06 189.488C586.852 190.384 588.964 190.832 591.396 190.832ZM668.629 189.936V206.96H659.349V198H625.301V206.96H616.021V189.936H626.197L628.565 190.128H655.061L657.173 189.936H668.629ZM623.893 161.584H661.909V195.568H651.221V164.656L656.149 169.584H629.205L633.493 165.744C633.877 167.579 634.112 169.328 634.197 170.992C634.282 172.613 634.325 174.128 634.325 175.536C634.325 181.595 633.408 186.331 631.573 189.744C629.738 193.115 627.157 194.8 623.829 194.8L619.477 191.152C622.89 188.677 624.597 182.768 624.597 173.424C624.597 171.589 624.533 169.691 624.405 167.728C624.277 165.723 624.106 163.675 623.893 161.584ZM693.889 198.96C689.579 198.96 685.718 198.171 682.305 196.592C678.934 194.971 676.267 192.709 674.305 189.808C672.385 186.907 671.424 183.536 671.424 179.696C671.424 175.899 672.342 172.571 674.177 169.712C676.054 166.853 678.614 164.635 681.857 163.056C685.099 161.435 688.79 160.624 692.929 160.624C697.153 160.624 700.779 161.563 703.809 163.44C706.838 165.275 709.163 167.877 710.785 171.248C712.449 174.619 713.281 178.587 713.281 183.152H680.001V176.048H707.521L703.361 178.608C703.19 176.475 702.657 174.661 701.761 173.168C700.907 171.675 699.734 170.523 698.241 169.712C696.747 168.901 694.998 168.496 692.993 168.496C690.817 168.496 688.918 168.944 687.297 169.84C685.718 170.693 684.481 171.909 683.585 173.488C682.731 175.024 682.305 176.837 682.305 178.928C682.305 181.445 682.859 183.6 683.969 185.392C685.078 187.184 686.699 188.549 688.833 189.488C690.966 190.427 693.547 190.896 696.577 190.896C699.307 190.896 702.059 190.512 704.833 189.744C707.606 188.933 710.102 187.803 712.321 186.352V193.52C709.931 195.227 707.137 196.571 703.937 197.552C700.779 198.491 697.43 198.96 693.889 198.96ZM714.247 198L729.415 174.064L737.223 180.144L726.599 198H714.247ZM774.727 198L764.103 180.144L771.847 174.064L787.079 198H774.727ZM755.911 189.04L752.903 188.016L773.895 161.584H785.991L754.823 198H746.503L715.271 161.584H727.367L748.423 188.016L745.415 189.04V161.584H755.911V189.04ZM790.97 198V161.584H801.594V195.248L798.138 190.32H812.346C814.308 190.32 815.823 189.851 816.89 188.912C817.956 187.931 818.49 186.608 818.49 184.944C818.49 183.195 817.956 181.851 816.89 180.912C815.823 179.931 814.308 179.44 812.346 179.44H798.202V172.08H813.946C817.06 172.08 819.748 172.635 822.01 173.744C824.314 174.811 826.106 176.325 827.386 178.288C828.666 180.208 829.306 182.469 829.306 185.072C829.306 187.632 828.666 189.893 827.386 191.856C826.106 193.819 824.335 195.333 822.074 196.4C819.812 197.467 817.146 198 814.074 198H790.97Z" fill="black"/>
<path d="M483.645 230.72H497.245C499.645 230.72 501.645 231.107 503.245 231.88C504.845 232.627 506.045 233.693 506.845 235.08C507.645 236.44 508.045 238.04 508.045 239.88C508.045 241.72 507.605 243.32 506.725 244.68C505.872 246.04 504.632 247.107 503.005 247.88C501.405 248.627 499.485 249 497.245 249H478.405L480.725 233.28L478.405 219H505.645V224.36H482.605L485.205 221.08L487.205 233.16L485.085 247.08L482.485 243.88H496.485C497.952 243.88 499.112 243.507 499.965 242.76C500.845 242.013 501.285 241 501.285 239.72C501.285 238.44 500.845 237.427 499.965 236.68C499.085 235.933 497.912 235.56 496.445 235.56H483.645V230.72ZM524.653 249.6C521.96 249.6 519.546 249.107 517.413 248.12C515.306 247.107 513.64 245.693 512.413 243.88C511.213 242.067 510.613 239.96 510.613 237.56C510.613 235.187 511.186 233.107 512.333 231.32C513.506 229.533 515.106 228.147 517.133 227.16C519.16 226.147 521.466 225.64 524.053 225.64C526.693 225.64 528.96 226.227 530.853 227.4C532.746 228.547 534.2 230.173 535.213 232.28C536.253 234.387 536.773 236.867 536.773 239.72H515.973V235.28H533.173L530.573 236.88C530.466 235.547 530.133 234.413 529.573 233.48C529.04 232.547 528.306 231.827 527.373 231.32C526.44 230.813 525.346 230.56 524.093 230.56C522.733 230.56 521.546 230.84 520.533 231.4C519.546 231.933 518.773 232.693 518.213 233.68C517.68 234.64 517.413 235.773 517.413 237.08C517.413 238.653 517.76 240 518.453 241.12C519.146 242.24 520.16 243.093 521.493 243.68C522.826 244.267 524.44 244.56 526.333 244.56C528.04 244.56 529.76 244.32 531.493 243.84C533.226 243.333 534.786 242.627 536.173 241.72V246.2C534.68 247.267 532.933 248.107 530.933 248.72C528.96 249.307 526.866 249.6 524.653 249.6ZM544.288 226.24H567.808V249H561.128V228.24L564.208 231.28H547.608L550.488 228.8C550.621 230.427 550.728 231.933 550.808 233.32C550.914 234.68 550.968 235.907 550.968 237C550.968 241.373 550.314 244.547 549.008 246.52C547.728 248.493 545.648 249.48 542.768 249.48C541.968 249.48 541.194 249.387 540.448 249.2C539.728 249.04 539.021 248.76 538.328 248.36V243.52C538.808 243.707 539.274 243.853 539.728 243.96C540.208 244.04 540.648 244.08 541.048 244.08C542.408 244.08 543.381 243.467 543.968 242.24C544.581 240.987 544.888 238.933 544.888 236.08C544.888 234.8 544.834 233.333 544.728 231.68C544.648 230.027 544.501 228.213 544.288 226.24ZM585.869 249.6C583.042 249.6 580.562 249.107 578.429 248.12C576.295 247.107 574.629 245.707 573.429 243.92C572.229 242.107 571.629 240.013 571.629 237.64C571.629 235.24 572.229 233.147 573.429 231.36C574.629 229.547 576.295 228.147 578.429 227.16C580.562 226.147 583.042 225.64 585.869 225.64C588.695 225.64 591.175 226.147 593.309 227.16C595.442 228.147 597.095 229.547 598.269 231.36C599.469 233.147 600.069 235.24 600.069 237.64C600.069 240.013 599.469 242.107 598.269 243.92C597.095 245.707 595.442 247.107 593.309 248.12C591.175 249.107 588.695 249.6 585.869 249.6ZM585.869 244.52C587.415 244.52 588.735 244.24 589.829 243.68C590.949 243.12 591.802 242.333 592.389 241.32C593.002 240.28 593.309 239.053 593.309 237.64C593.309 236.2 593.002 234.973 592.389 233.96C591.802 232.92 590.949 232.12 589.829 231.56C588.735 231 587.415 230.72 585.869 230.72C584.349 230.72 583.029 231 581.909 231.56C580.789 232.12 579.922 232.92 579.309 233.96C578.722 234.973 578.429 236.2 578.429 237.64C578.429 239.053 578.722 240.28 579.309 241.32C579.922 242.333 580.789 243.12 581.909 243.68C583.029 244.24 584.349 244.52 585.869 244.52ZM622.841 226.24V231.36H607.561L610.641 228.32V249H603.961V226.24H622.841ZM638.017 249.6C635.19 249.6 632.71 249.107 630.577 248.12C628.444 247.107 626.777 245.707 625.577 243.92C624.377 242.107 623.777 240.013 623.777 237.64C623.777 235.24 624.377 233.147 625.577 231.36C626.777 229.547 628.444 228.147 630.577 227.16C632.71 226.147 635.19 225.64 638.017 225.64C640.844 225.64 643.324 226.147 645.457 227.16C647.59 228.147 649.244 229.547 650.417 231.36C651.617 233.147 652.217 235.24 652.217 237.64C652.217 240.013 651.617 242.107 650.417 243.92C649.244 245.707 647.59 247.107 645.457 248.12C643.324 249.107 640.844 249.6 638.017 249.6ZM638.017 244.52C639.564 244.52 640.884 244.24 641.977 243.68C643.097 243.12 643.95 242.333 644.537 241.32C645.15 240.28 645.457 239.053 645.457 237.64C645.457 236.2 645.15 234.973 644.537 233.96C643.95 232.92 643.097 232.12 641.977 231.56C640.884 231 639.564 230.72 638.017 230.72C636.497 230.72 635.177 231 634.057 231.56C632.937 232.12 632.07 232.92 631.457 233.96C630.87 234.973 630.577 236.2 630.577 237.64C630.577 239.053 630.87 240.28 631.457 241.32C632.07 242.333 632.937 243.12 634.057 243.68C635.177 244.24 636.497 244.52 638.017 244.52ZM656.11 226.24H662.79V233.48L662.51 234.36V239.84L662.79 241.48V255.6H656.11V226.24ZM660.47 237.64C660.923 235.213 661.71 233.107 662.83 231.32C663.977 229.507 665.403 228.107 667.11 227.12C668.843 226.133 670.763 225.64 672.87 225.64C675.11 225.64 677.07 226.147 678.75 227.16C680.457 228.147 681.79 229.547 682.75 231.36C683.71 233.147 684.19 235.24 684.19 237.64C684.19 240.013 683.71 242.107 682.75 243.92C681.79 245.707 680.457 247.107 678.75 248.12C677.07 249.107 675.11 249.6 672.87 249.6C670.737 249.6 668.817 249.107 667.11 248.12C665.43 247.133 664.017 245.747 662.87 243.96C661.723 242.147 660.923 240.04 660.47 237.64ZM677.43 237.64C677.43 236.307 677.15 235.133 676.59 234.12C676.057 233.08 675.31 232.28 674.35 231.72C673.39 231.133 672.283 230.84 671.03 230.84C669.777 230.84 668.59 231.133 667.47 231.72C666.35 232.28 665.363 233.08 664.51 234.12C663.683 235.133 663.03 236.307 662.55 237.64C663.03 238.973 663.683 240.147 664.51 241.16C665.363 242.173 666.35 242.973 667.47 243.56C668.59 244.12 669.777 244.4 671.03 244.4C672.283 244.4 673.39 244.12 674.35 243.56C675.31 242.973 676.057 242.173 676.59 241.16C677.15 240.147 677.43 238.973 677.43 237.64ZM688.102 249V226.24H694.742V247.28L692.582 244.2H701.462C702.689 244.2 703.635 243.907 704.302 243.32C704.969 242.707 705.302 241.88 705.302 240.84C705.302 239.747 704.969 238.907 704.302 238.32C703.635 237.707 702.689 237.4 701.462 237.4H692.622V232.8H702.462C704.409 232.8 706.089 233.147 707.502 233.84C708.942 234.507 710.062 235.453 710.862 236.68C711.662 237.88 712.062 239.293 712.062 240.92C712.062 242.52 711.662 243.933 710.862 245.16C710.062 246.387 708.955 247.333 707.542 248C706.129 248.667 704.462 249 702.542 249H688.102ZM734.449 236.76V241.12H723.249L723.169 240.96C721.435 240.96 719.915 240.667 718.609 240.08C717.302 239.467 716.275 238.613 715.529 237.52C714.809 236.4 714.449 235.107 714.449 233.64C714.449 232.173 714.809 230.893 715.529 229.8C716.275 228.68 717.302 227.813 718.609 227.2C719.915 226.56 721.435 226.24 723.169 226.24H739.209V249H732.529V228L734.529 230.76H724.769C723.649 230.76 722.769 231.027 722.129 231.56C721.515 232.067 721.209 232.787 721.209 233.72C721.209 234.653 721.515 235.4 722.129 235.96C722.769 236.493 723.649 236.76 724.769 236.76H734.449ZM729.409 238.36L721.529 249H713.929L722.129 238.36H729.409Z" fill="black"/>
<rect width="281" height="281" rx="140.5" fill="white"/>
<path fill-rule="evenodd" clip-rule="evenodd" d="M139.291 47.4307C128.462 50.3523 112.576 54.5829 103.988 56.8338C95.3994 59.0848 85.2673 61.8161 81.4709 62.9038L74.5691 64.8821L70.3721 80.0327C68.0638 88.3671 63.01 107.026 59.1416 121.5C55.2732 135.973 50.958 151.762 49.5541 156.586L47 165.358L84.659 202.679L122.318 240L133.181 236.954C144.005 233.918 153.756 231.303 199.245 219.233L223.216 212.873L226.854 200.135C228.854 193.13 230.209 187.119 229.865 186.778C229.522 186.436 226.734 188.988 223.67 192.448L218.097 198.74L206.19 189.679C199.64 184.696 194.282 180.095 194.282 179.456C194.282 178.481 217.415 161.984 218.783 161.984C219.033 161.984 222.164 164.502 225.742 167.579C232.221 173.152 232.25 173.162 233.157 169.94C234.745 164.3 234.449 163.394 229.106 157.568C225.686 153.838 223.592 150.064 223.06 146.669C222.336 142.055 222.727 141.036 226.558 137.56L228.941 135.396C229.62 134.78 229.182 133.652 228.265 133.655L214.613 133.71L202.46 133.758C201.413 133.762 201.076 135.17 202.008 135.648L206.163 137.78C213.82 141.708 213.969 141.896 213.931 147.499C213.893 152.898 213.455 153.528 205.941 158.948C201.567 162.103 196.983 164.683 195.754 164.683C194.525 164.683 187.182 163.104 179.436 161.176L165.353 157.668L169.294 146.078C173.364 134.113 174.115 129.596 172.033 129.596C169.089 129.596 121.643 107.318 122.044 106.124C122.29 105.389 130.098 100.503 139.395 95.2643C148.692 90.0243 157.128 85.2012 158.141 84.5454C159.511 83.6601 158.11 82.1649 152.694 78.7332C148.683 76.1908 146.623 74.4162 148.117 74.7887C149.61 75.1611 163.688 78.8398 179.399 82.9638C195.112 87.0878 209.165 90.4453 210.629 90.4251C212.094 90.4048 215.286 88.7355 217.725 86.714L219.134 85.5463C220.657 84.2839 220.562 81.9186 218.943 80.7816L192.855 62.4598C176.739 51.1417 162.524 41.9342 161.267 42.0004C160.008 42.0665 150.119 44.5104 139.291 47.4307ZM163.844 107.146C164.156 107.416 170.367 110.809 177.649 114.685L187.948 120.168C189.28 120.877 190.888 119.912 190.888 118.402V114.193V108.655C190.888 107.551 189.992 106.655 188.888 106.655H177.083C169.491 106.655 163.533 106.877 163.844 107.146ZM213.976 107.667C213.98 108.223 215.811 111.412 218.044 114.752L218.449 115.358C219.548 117.001 222.11 116.224 222.112 114.248L222.112 113.74C222.118 106.766 222.054 106.655 218.044 106.655C215.804 106.655 213.973 107.111 213.976 107.667Z" fill="url(#paint2_linear_183_85)"/>
<defs>
<linearGradient id="paint0_linear_183_85" x1="414" y1="75.5" x2="678" y2="75.5" gradientUnits="userSpaceOnUse">
<stop stop-color="#0088FF"/>
<stop offset="0.336538" stop-color="#37D256"/>
<stop offset="0.514423" stop-color="#FFE500"/>
<stop offset="0.6875" stop-color="#FF5100"/>
<stop offset="1" stop-color="#FF0040"/>
</linearGradient>
<linearGradient id="paint1_linear_183_85" x1="540" y1="85.5" x2="804" y2="85.5" gradientUnits="userSpaceOnUse">
<stop stop-color="#0088FF"/>
<stop offset="0.336538" stop-color="#37D256"/>
<stop offset="0.514423" stop-color="#FFE500"/>
<stop offset="0.6875" stop-color="#FF5100"/>
<stop offset="1" stop-color="#FF0040"/>
</linearGradient>
<linearGradient id="paint2_linear_183_85" x1="47" y1="201.99" x2="227.457" y2="338.094" gradientUnits="userSpaceOnUse">
<stop offset="0.0578968" stop-color="#0088FF"/>
<stop offset="0.183258" stop-color="#37D256"/>
<stop offset="0.416701" stop-color="#FFE500"/>
<stop offset="0.579071" stop-color="#FF5100"/>
<stop offset="0.678262" stop-color="#FF0040"/>
</linearGradient>
</defs>
</svg>
