<svg width="45" height="47" viewBox="0 0 45 47" fill="none" xmlns="http://www.w3.org/2000/svg">
<path fill-rule="evenodd" clip-rule="evenodd" d="M21.7348 1.27894C19.1846 1.96699 15.4433 2.96332 13.4208 3.49342C11.3982 4.02352 9.01209 4.66676 8.11801 4.92291L6.49262 5.38882L5.50421 8.95684C4.9606 10.9196 3.77041 15.3139 2.85939 18.7224C1.94836 22.1309 0.932132 25.8492 0.60149 26.9854L0 29.0511L8.86883 37.8404L17.7377 46.6297L20.2958 45.9124C22.845 45.1973 25.1413 44.5814 35.8543 41.739L41.4995 40.2411L42.3561 37.2413C42.8272 35.5916 43.1463 34.1761 43.0654 34.0957C42.9845 34.0153 42.328 34.6163 41.6063 35.4311L40.2939 36.9127L37.4899 34.779C35.9473 33.6053 34.6855 32.5219 34.6855 32.3713C34.6855 32.1418 40.1334 28.2566 40.4554 28.2566C40.5143 28.2566 41.2517 28.8497 42.0943 29.5743C43.6202 30.8868 43.6269 30.889 43.8405 30.1304C44.2147 28.802 44.1449 28.5887 42.8866 27.2168C42.0811 26.3383 41.5881 25.4494 41.4627 24.6498C41.2923 23.5633 41.3844 23.3233 42.2864 22.5046C42.6437 22.1803 42.4129 21.5862 41.9304 21.5881L39.4734 21.5979L37.7113 21.605C37.1839 21.6071 37.0142 22.3157 37.4835 22.5564C39.2867 23.4816 39.3218 23.5257 39.3129 24.8453C39.3039 26.1168 39.2007 26.2652 37.431 27.5416C36.4011 28.2846 35.3215 28.8922 35.0321 28.8922C34.7427 28.8922 33.0134 28.5204 31.1891 28.0663L27.8725 27.2403L28.8008 24.5106C29.7591 21.693 29.9359 20.6293 29.4457 20.6293C28.7525 20.6293 17.5787 15.3826 17.6731 15.1013C17.7309 14.9284 19.5699 13.7777 21.7594 12.5439C23.9489 11.3099 25.9356 10.174 26.1742 10.0196C26.4968 9.81111 26.1668 9.45897 24.8912 8.65079C23.9466 8.05204 23.4616 7.63413 23.8133 7.72184C24.1651 7.80956 27.4804 8.6759 31.1805 9.64712C34.8809 10.6183 38.1905 11.409 38.5352 11.4043C38.8802 11.3995 39.632 11.0064 40.2063 10.5303C40.7321 10.0945 40.6995 9.27803 40.1406 8.88554L34.3494 4.81836C30.5541 2.15291 27.2064 -0.0154892 26.9103 8.33553e-05C26.6139 0.0156559 24.285 0.591205 21.7348 1.27894ZM27.5172 15.3422C27.5907 15.4058 29.0534 16.2047 30.7683 17.1175L32.3188 17.943C33.029 18.3211 33.8861 17.8064 33.8861 17.0018C33.8861 16.0214 33.0913 15.2265 32.1108 15.2265H30.635C28.8471 15.2265 27.444 15.2787 27.5172 15.3422ZM39.3234 15.4649C39.3244 15.5958 39.7555 16.3468 40.2815 17.1334L40.3104 17.1766C40.5891 17.5934 41.239 17.3964 41.2395 16.895C41.2408 15.2526 41.2258 15.2265 40.2815 15.2265C39.7539 15.2265 39.3228 15.334 39.3234 15.4649Z" fill="black"/>
</svg>
